<?xml version="1.0" standalone="no"?><svg xmlns="http://www.w3.org/2000/svg" viewBox="0 0 1440 320"><path fill="#f3f4f5" fill-opacity="1" d="M0,224L34.3,197.3C68.6,171,137,117,206,122.7C274.3,128,343,192,411,224C480,256,549,256,617,245.3C685.7,235,754,213,823,192C891.4,171,960,149,1029,144C1097.1,139,1166,149,1234,176C1302.9,203,1371,245,1406,266.7L1440,288L1440,320L1405.7,320C1371.4,320,1303,320,1234,320C1165.7,320,1097,320,1029,320C960,320,891,320,823,320C754.3,320,686,320,617,320C548.6,320,480,320,411,320C342.9,320,274,320,206,320C137.1,320,69,320,34,320L0,320Z"></path></svg>